# This file uses centimeters as units for non-parametric coordinates.

mtllib wall_shelf.mtl
g default
v 91.607719 160.708267 7.453137
v 91.900720 161.466261 7.326319
v 92.701265 162.021078 6.979848
v 93.794801 162.224255 6.506556
v 279.997726 162.224255 6.506556
v 281.091284 162.021078 6.979848
v 281.891772 161.466261 7.326319
v 282.184796 160.708267 7.453137
v 93.794801 162.224255 -43.759929
v 92.701265 162.021078 -44.233221
v 91.900720 161.466261 -44.579693
v 91.607719 160.708267 -44.706510
v 279.997726 162.224255 -43.759929
v 281.091284 162.021078 -44.233221
v 281.891772 161.466261 -44.579693
v 282.184796 160.708267 -44.706510
v 95.981951 154.643591 5.559931
v 94.307990 154.874413 6.284428
v 92.888898 155.531686 6.898629
v 91.940682 156.515326 7.309026
v 91.607719 157.675625 7.453137
v 277.810564 154.643591 5.559931
v 279.484491 154.874413 6.284428
v 280.903606 155.531686 6.898629
v 281.851810 156.515326 7.309026
v 282.184796 157.675625 7.453137
v 95.981951 154.643591 -42.813304
v 94.307990 154.874413 -43.537802
v 92.888898 155.531686 -44.152003
v 91.940682 156.515326 -44.562399
v 91.607719 157.675625 -44.706510
v 277.810564 154.643591 -42.813304
v 279.484491 154.874413 -43.537802
v 280.903606 155.531686 -44.152003
v 281.851810 156.515326 -44.562399
v 282.184796 157.675625 -44.706510
vt 0.344494 0.306364
vt 0.343709 0.274087
vt 0.666484 0.274087
vt 0.665700 0.306364
vt 0.343709 0.144958
vt 0.666484 0.144958
vt 0.346635 0.329988
vt 0.663558 0.329988
vt 0.344596 0.095553
vt 0.665597 0.095553
vt 0.349561 0.338637
vt 0.660632 0.338637
vt 0.347141 0.053670
vt 0.663052 0.053670
vt 0.350939 0.025683
vt 0.659254 0.025683
vt 0.355420 0.015854
vt 0.654773 0.015854
vt 0.932428 0.600546
vt 0.931643 0.632822
vt 0.610430 0.632822
vt 0.609645 0.600546
vt 0.929498 0.656446
vt 0.612575 0.656446
vt 0.609645 0.471416
vt 0.932428 0.471416
vt 0.926570 0.665096
vt 0.615504 0.665096
vt 0.931535 0.422011
vt 0.610536 0.422011
vt 0.928996 0.380128
vt 0.613077 0.380128
vt 0.925195 0.352141
vt 0.616879 0.352141
vt 0.920711 0.342313
vt 0.621360 0.342313
vt 0.015021 0.984146
vt 0.015021 0.668769
vt 0.326093 0.668769
vt 0.326093 0.984146
vt 0.332940 0.976734
vt 0.332940 0.668769
vt 0.632294 0.668769
vt 0.632294 0.976734
vt 0.018726 0.338637
vt 0.016873 0.329988
vt 0.335952 0.329988
vt 0.334101 0.338637
vt 0.015518 0.306364
vt 0.337305 0.306364
vt 0.015021 0.274087
vt 0.337804 0.274087
vt 0.015021 0.144958
vt 0.337804 0.144958
vt 0.015586 0.095553
vt 0.337239 0.095553
vt 0.017192 0.053670
vt 0.335633 0.053670
vt 0.019595 0.025683
vt 0.333228 0.025683
vt 0.022430 0.015854
vt 0.330394 0.015854
vt 0.281214 0.406866
vt 0.281711 0.374586
vt 0.603498 0.374586
vt 0.603997 0.406866
vt 0.283066 0.350959
vt 0.602145 0.350959
vt 0.603997 0.535988
vt 0.281214 0.535988
vt 0.284919 0.342306
vt 0.600294 0.342306
vt 0.281779 0.585399
vt 0.603432 0.585399
vt 0.283385 0.627286
vt 0.601826 0.627286
vt 0.285788 0.655269
vt 0.599421 0.655269
vt 0.288622 0.665096
vt 0.596587 0.665096
vn -0.001302 0.999989 0.004503
vn -0.139528 0.845709 0.515081
vn 0.139529 0.845706 0.515085
vn 0.001302 0.999989 0.004503
vn 0.000000 0.529681 0.848197
vn 0.000000 0.529681 0.848197
vn 0.000000 0.165013 0.986291
vn 0.000000 0.033134 0.999451
vn 0.000000 0.033134 0.999451
vn 0.000000 0.165013 0.986291
vn 0.001302 0.999989 -0.004503
vn -0.001302 0.999989 -0.004503
vn 0.932730 0.360576 0.000000
vn 0.997110 0.075973 0.000000
vn 0.997110 0.075973 0.000000
vn 0.932730 0.360576 0.000000
vn 0.139529 0.845706 -0.515085
vn 0.569648 0.821889 0.000000
vn 0.569648 0.821889 0.000000
vn -0.997110 0.075968 0.000000
vn -0.932739 0.360552 0.000000
vn -0.932739 0.360552 0.000000
vn -0.997110 0.075968 0.000000
vn -0.569620 0.821908 0.000000
vn -0.139528 0.845709 -0.515081
vn -0.569620 0.821908 0.000000
vn 0.000000 0.033134 -0.999451
vn 0.000000 0.165013 -0.986291
vn 0.000000 0.165013 -0.986291
vn 0.000000 0.033134 -0.999451
vn 0.000000 0.529681 -0.848197
vn 0.000000 0.529681 -0.848197
vn -0.001581 -0.999984 -0.005442
vn 0.001581 -0.999984 -0.005442
vn 0.001581 -0.999984 0.005442
vn -0.001581 -0.999984 0.005442
vn 0.000000 -0.034126 0.999418
vn 0.000000 -0.034126 0.999418
vn 0.000000 -0.034126 -0.999417
vn 0.000000 -0.034126 -0.999418
vn 0.996926 -0.078355 0.000000
vn 0.996926 -0.078355 0.000000
vn -0.996926 -0.078347 0.000000
vn -0.996926 -0.078347 0.000000
vn -0.862294 -0.506407 0.000000
vn -0.862294 -0.506407 0.000000
vn -0.580948 -0.813941 0.000000
vn -0.580948 -0.813941 0.000000
vn -0.108760 -0.908273 0.403995
vn -0.108760 -0.908273 -0.403995
vn 0.000000 -0.247850 0.968798
vn 0.000000 -0.247850 0.968798
vn 0.000000 -0.522662 0.852540
vn 0.000000 -0.522662 0.852540
vn 0.108760 -0.908273 0.403995
vn 0.000000 -0.247850 -0.968798
vn 0.000000 -0.247850 -0.968798
vn 0.000000 -0.522662 -0.852540
vn 0.000000 -0.522662 -0.852540
vn 0.108760 -0.908273 -0.403995
vn 0.862289 -0.506416 0.000000
vn 0.862289 -0.506416 0.000000
vn 0.580945 -0.813943 0.000000
vn 0.580945 -0.813943 0.000000
s 1
g pCube10
usemtl initialShadingGroup
f 4/45/1 3/46/2 6/47/3 5/48/4
f 3/46/2 2/49/5 7/50/6 6/47/3
s 2
f 2/49/7 1/51/8 8/52/9 7/50/10
s 1
f 4/37/1 5/38/4 13/39/11 9/40/12
s 2
f 7/1/13 8/2/14 16/3/15 15/4/16
s 1
f 5/11/4 6/7/3 14/8/17 13/12/11
f 6/7/3 7/1/18 15/4/19 14/8/17
s 2
f 1/19/20 2/20/21 11/21/22 12/22/23
s 1
f 2/20/24 3/23/2 10/24/25 11/21/26
f 3/23/2 4/27/1 9/28/12 10/24/25
s 2
f 12/63/27 11/64/28 15/65/29 16/66/30
s 1
f 11/64/31 10/67/25 14/68/17 15/65/32
f 10/67/25 9/71/12 13/72/11 14/68/17
s 2
f 27/41/33 32/42/34 22/43/35 17/44/36
f 21/53/37 26/54/38 8/52/9 1/51/8
f 12/63/27 16/66/30 36/69/39 31/70/40
f 26/5/41 36/6/42 16/3/15 8/2/14
f 31/25/43 21/26/44 1/19/20 12/22/23
f 20/29/45 21/26/44 31/25/43 30/30/46
f 19/31/47 20/29/45 30/30/46 29/32/48
f 17/35/36 18/33/49 28/34/50 27/36/33
f 18/33/49 19/31/47 29/32/48 28/34/50
f 21/53/37 20/55/51 25/56/52 26/54/38
f 20/55/51 19/57/53 24/58/54 25/56/52
f 19/57/53 18/59/49 23/60/55 24/58/54
f 18/59/49 17/61/36 22/62/35 23/60/55
f 30/73/56 31/70/40 36/69/39 35/74/57
f 29/75/58 30/73/56 35/74/57 34/76/59
f 27/79/33 28/77/50 33/78/60 32/80/34
f 28/77/50 29/75/58 34/76/59 33/78/60
f 26/5/41 25/9/61 35/10/62 36/6/42
f 25/9/61 24/13/63 34/14/64 35/10/62
f 24/13/63 23/15/55 33/16/60 34/14/64
f 23/15/55 22/17/35 32/18/34 33/16/60
